<svg width="148" height="48" viewBox="0 0 148 48" version="1.1" xmlns="http://www.w3.org/2000/svg" xmlns:xlink="http://www.w3.org/1999/xlink">
<title>Group.svg</title>
<desc>Created using Figma</desc>
<g id="Canvas" transform="translate(1185 -766)">
<g id="Group">
<g id="XMLID 61">
<g id="XMLID 134">
<use xlink:href="#path0_fill" transform="translate(-1093.63 766.308)" fill="#FFFFFF"/>
</g>
<g id="XMLID 133">
<use xlink:href="#path1_fill" transform="translate(-1085.6 766)" fill="#FFFFFF"/>
</g>
<g id="XMLID 132">
<use xlink:href="#path2_fill" transform="translate(-1079.83 767.604)" fill="#FFFFFF"/>
</g>
<g id="XMLID 131">
<use xlink:href="#path3_fill" transform="translate(-1074.63 770.134)" fill="#FFFFFF"/>
</g>
<g id="XMLID 130">
<use xlink:href="#path4_fill" transform="translate(-1069.55 777.537)" fill="#FFFFFF"/>
</g>
<g id="XMLID 129">
<use xlink:href="#path5_fill" transform="translate(-1183.24 779.08)" fill="#FFFFFF"/>
</g>
<g id="XMLID 126">
<use xlink:href="#path6_fill" transform="translate(-1169.26 782.103)" fill="#FFFFFF"/>
</g>
<g id="XMLID 123">
<use xlink:href="#path7_fill" transform="translate(-1151.32 776.365)" fill="#FFFFFF"/>
</g>
<g id="XMLID 120">
<use xlink:href="#path8_fill" transform="translate(-1133.95 782.103)" fill="#FFFFFF"/>
</g>
<g id="XMLID 117">
<use xlink:href="#path9_fill" transform="translate(-1115.26 782.103)" fill="#FFFFFF"/>
</g>
<g id="XMLID 116">
<use xlink:href="#path10_fill" transform="translate(-1095.76 776.365)" fill="#FFFFFF"/>
</g>
<g id="XMLID 112">
<use xlink:href="#path11_fill" transform="translate(-1185 803.018)" fill="#FFFFFF"/>
</g>
<g id="XMLID 108">
<use xlink:href="#path12_fill" transform="translate(-1179.86 803.018)" fill="#FFFFFF"/>
</g>
<g id="XMLID 107">
<use xlink:href="#path13_fill" transform="translate(-1174.46 805.301)" fill="#FFFFFF"/>
</g>
<g id="XMLID 104">
<use xlink:href="#path14_fill" transform="translate(-1165.06 805.301)" fill="#FFFFFF"/>
</g>
<g id="XMLID 87">
<use xlink:href="#path15_fill" transform="translate(-1158.66 805.301)" fill="#FFFFFF"/>
</g>
<g id="XMLID 86">
<use xlink:href="#path16_fill" transform="translate(-1152.14 805.301)" fill="#FFFFFF"/>
</g>
<g id="XMLID 85">
<use xlink:href="#path17_fill" transform="translate(-1145.99 805.301)" fill="#FFFFFF"/>
</g>
<g id="XMLID 82">
<use xlink:href="#path18_fill" transform="translate(-1141.16 805.301)" fill="#FFFFFF"/>
</g>
<g id="XMLID 81">
<use xlink:href="#path19_fill" transform="translate(-1134.71 805.301)" fill="#FFFFFF"/>
</g>
<g id="XMLID 78">
<use xlink:href="#path20_fill" transform="translate(-1130.32 805.239)" fill="#FFFFFF"/>
</g>
<g id="XMLID 75">
<use xlink:href="#path21_fill" transform="translate(-1125.17 805.239)" fill="#FFFFFF"/>
</g>
<g id="XMLID 72">
<use xlink:href="#path22_fill" transform="translate(-1119.72 803.326)" fill="#FFFFFF"/>
</g>
<g id="XMLID 69">
<use xlink:href="#path23_fill" transform="translate(-1113.51 805.301)" fill="#FFFFFF"/>
</g>
<g id="XMLID 68">
<use xlink:href="#path24_fill" transform="translate(-1107.05 805.362)" fill="#FFFFFF"/>
</g>
<g id="XMLID 67">
<use xlink:href="#path25_fill" transform="translate(-1100.65 805.301)" fill="#FFFFFF"/>
</g>
<g id="XMLID 66">
<use xlink:href="#path26_fill" transform="translate(-1094.51 803.943)" fill="#FFFFFF"/>
</g>
<g id="XMLID 65">
<use xlink:href="#path27_fill" transform="translate(-1089.49 796.046)" fill="#FFFFFF"/>
</g>
<g id="XMLID 64">
<use xlink:href="#path28_fill" transform="translate(-1080.96 795.861)" fill="#FFFFFF"/>
</g>
<g id="XMLID 63">
<use xlink:href="#path29_fill" transform="translate(-1075.63 794.566)" fill="#FFFFFF"/>
</g>
<g id="XMLID 62">
<use xlink:href="#path30_fill" transform="translate(-1070.99 795.368)" fill="#FFFFFF"/>
</g>
</g>
</g>
</g>
<defs>
<path id="path0_fill" d="M 18.5 0.431877L 1.91381e-06 17.2751C 1.91381e-06 17.2751 16.6814 3.26992 17.4339 2.52956C 18.1864 4.62725 21.6983 11.599 18.7508 23.0745C 18.5627 23.8766 18.3119 24.6787 18.061 25.5424C 13.4831 40.2879 2.57118 47.5681 2.44576 47.6298L 2.50848 47.6915C 2.6339 47.6298 5.45593 45.964 8.90508 42.4473C 12.1034 39.1774 16.3678 33.6247 18.8136 25.7892C 21.2593 17.9537 21.1966 11.5373 20.7576 7.52699C 20.2559 3.14653 19.1898 0.678663 19.1271 0.616966L 18.939 0L 18.5 0.431877Z"/>
<path id="path1_fill" d="M 23.5797 0.493573L 15.9288 7.2802C 15.9288 7.2802 21.2593 3.51671 22.2 2.65296C 22.3254 4.31877 23.7051 7.71208 21.8237 14.8689C 21.2593 17.09 20.5068 19.6195 19.5034 22.3342C 15.8034 32.6375 10.5356 39.054 6.83559 42.2622C 2.82203 45.7172 0.0627099 46.8895 0.0627099 46.8895L 3.82763e-06 47.0745C 0.125428 47.0128 3.32372 45.964 7.4 42.3856C 11.1627 39.1157 16.4305 33.0077 20.2559 22.581C 25.3983 8.26735 24.2068 0.92545 24.1441 0.616966L 24.0814 0L 23.5797 0.493573Z"/>
<path id="path2_fill" d="M 26.9661 0.18509L 19.8169 3.88689C 19.8169 3.88689 24.8339 2.09769 25.8373 1.60411C 25.7746 2.28278 25.5864 3.94859 25.0847 5.86118C 24.3322 8.76093 23.7678 12.2776 20.9458 18.6324C 16.6186 28.2571 11.1 34.9203 7.21187 38.4987C 3.01017 42.3856 1.91381e-06 44.1131 1.91381e-06 44.1748L 0.062708 44.3599C 0.188132 44.2982 3.38644 42.6941 7.71356 38.7455C 11.6644 35.1054 17.3085 28.7506 21.6983 19.0026C 27.7814 5.5527 27.5932 0.802056 27.5305 0.616966L 27.4678 -5.88385e-08L 26.9661 0.18509Z"/>
<path id="path3_fill" d="M 30.9169 0.18509L 23.9559 2.15938C 23.9559 2.15938 28.4085 1.54242 29.4746 1.23393C 28.8475 3.39332 27.2797 10.7352 20.6949 19.6812C 8.65424 36.0925 0.125428 40.3496 3.82763e-06 40.3496L 3.82763e-06 40.5964C 0.376275 40.473 9.15594 36.7712 21.322 20.1131C 29.161 9.37789 31.3559 0.678663 31.3559 0.616966L 31.4814 -1.17677e-07L 30.9169 0.18509Z"/>
<path id="path4_fill" d="M 31.8576 0.0616962L 25.022 0.987146C 25.022 0.987146 29.0983 0.987147 30.1644 0.863753C 29.2237 2.89974 26.9034 9.93316 18.5627 18.2005C 8.90509 27.9486 0.125422 31.5887 -1.91381e-06 31.6504L 0.0627138 31.8355C 0.125426 31.8355 9.28135 28.6272 19.1271 18.8175C 29.161 8.82262 32.2339 0.678664 32.2966 0.616967L 32.5475 4.70708e-07L 31.8576 0.0616962Z"/>
<path id="path5_fill" d="M 1.0661 0.678663C 1.0661 0.246786 1.25424 4.70708e-07 1.69322 4.70708e-07L 5.14237 4.70708e-07C 5.58136 4.70708e-07 5.64407 0.246787 5.64407 0.616967L 4.70339 17.4602L 12.417 17.4602C 12.9814 17.4602 13.0441 17.7069 13.0441 18.0771L 12.9186 20.2365C 12.9186 20.6067 12.6678 20.8535 12.2288 20.8535L 0.564407 20.8535C 0 20.8535 5.98067e-08 20.545 5.98067e-08 20.2365L 1.0661 0.678663Z"/>
<path id="path6_fill" d="M 4.78454e-07 10.3033C 4.78454e-07 3.14653 4.01356 2.35354e-07 8.59153 2.35354e-07C 13.0441 2.35354e-07 15.8661 2.71465 15.8661 7.95887C 15.8661 14.8072 11.7898 18.0771 7.14915 18.0771C 2.82203 18.1388 4.78454e-07 15.4859 4.78454e-07 10.3033ZM 7.58814 14.8072C 9.84576 14.8072 10.9746 12.3393 10.9746 8.14396C 10.9746 5.86118 10.661 3.45501 8.34068 3.45501C 5.20508 3.45501 4.89153 8.45244 4.89153 10.4267C 4.89153 12.5861 5.33051 14.8072 7.58814 14.8072Z"/>
<path id="path7_fill" d="M 1.25424 0.493574C 1.25424 0.0616969 1.50508 -4.70708e-07 1.88136 -4.70708e-07L 5.33051 -4.70708e-07C 5.76949 -4.70708e-07 5.8322 0.123394 5.8322 0.493574L 4.57797 22.9512C 4.57797 23.3213 4.38983 23.5681 4.07627 23.5681L 0.627118 23.5681C -4.85929e-07 23.5681 -4.78454e-07 23.3213 -4.78454e-07 22.9512L 1.25424 0.493574ZM 5.51864 14.437C 5.45593 14.3136 5.39322 14.1902 5.39322 14.0668C 5.39322 13.8817 5.45593 13.7584 5.58136 13.635L 12.0407 6.47815C 12.2288 6.23136 12.4797 6.10797 12.7305 6.10797L 16.8068 6.10797C 16.9949 6.10797 17.1831 6.16967 17.1831 6.35476C 17.1831 6.53985 17.0576 6.72494 16.9322 6.91003L 10.5983 13.8201L 15.8034 22.7044C 15.8661 22.8895 15.9915 23.0129 15.9915 23.1979C 15.9915 23.4447 15.8661 23.6298 15.4271 23.6298L 10.9119 23.6298C 10.661 23.6298 10.3475 23.5064 10.222 23.3213L 5.51864 14.437Z"/>
<path id="path8_fill" d="M 11.0373 11.7841L 10.9746 11.7224C 10.5983 13.0797 8.4661 18.1388 4.01356 18.1388C 1.19153 18.1388 0 15.671 0 12.2159C 0 4.68895 3.95085 2.35354e-07 8.59152 2.35354e-07C 10.5356 2.35354e-07 11.7898 0.74036 12.0407 0.863753C 12.1034 0.616967 12.2288 0.308483 12.4797 0.308483L 15.9288 0.308483C 16.4932 0.308483 16.6186 0.55527 16.6186 0.92545L 15.6153 17.2134C 15.6153 17.6452 15.4271 17.8303 14.9254 17.8303L 11.3508 17.8303C 10.7864 17.8303 10.7237 17.5219 10.7237 17.2134L 11.0373 11.7841ZM 5.70678 13.6967C 7.83898 13.6967 11.7271 5.4293 11.8525 3.7018C 11.539 3.57841 10.9746 3.26992 9.84576 3.26992C 5.20508 3.26992 4.51525 8.45244 4.51525 11.5373C 4.51525 12.5244 4.82881 13.6967 5.70678 13.6967Z"/>
<path id="path9_fill" d="M 11.0373 11.7841L 10.9746 11.7224C 10.5983 13.0797 8.4661 18.1388 4.01356 18.1388C 1.19152 18.1388 1.91381e-06 15.671 1.91381e-06 12.2159C 1.91381e-06 4.68895 3.95085 2.35354e-07 8.59153 2.35354e-07C 10.5356 2.35354e-07 11.7898 0.74036 12.0407 0.863753C 12.1034 0.616967 12.2288 0.308483 12.4797 0.308483L 15.9288 0.308483C 16.4932 0.308483 16.6186 0.55527 16.6186 0.92545L 15.678 17.2134C 15.678 17.6452 15.4898 17.8303 14.9881 17.8303L 11.4136 17.8303C 10.8492 17.8303 10.7864 17.5219 10.7864 17.2134L 11.0373 11.7841ZM 5.76949 13.6967C 7.90169 13.6967 11.7898 5.4293 11.9153 3.7018C 11.6017 3.57841 11.0373 3.26992 9.90847 3.26992C 5.2678 3.26992 4.57797 8.45244 4.57797 11.5373C 4.57797 12.5244 4.82881 13.6967 5.76949 13.6967Z"/>
<path id="path10_fill" d="M 1.25423 0.493573C 1.25423 0.0616969 1.50508 -4.70708e-07 1.88135 -4.70708e-07L 5.33051 -4.70708e-07C 5.76949 -4.70708e-07 5.8322 0.123394 5.8322 0.493573L 4.57796 22.9512C 4.57796 23.3213 4.38983 23.5681 4.07627 23.5681L 0.627115 23.5681C -3.81268e-06 23.5681 -3.82763e-06 23.3213 -3.82763e-06 22.9512L 1.25423 0.493573Z"/>
<path id="path11_fill" d="M 4.45254 7.89717C 4.45254 8.26735 3.38644 8.45244 2.44576 8.45244C 0.752542 8.45244 9.34479e-10 7.71208 9.34479e-10 5.92288C 9.34479e-10 3.82519 1.37966 2.22108 3.07288 2.22108C 4.32712 2.22108 4.82881 2.77635 4.82881 3.7018C 4.82881 5.67609 2.44576 5.92288 1.50508 5.92288C 1.50508 6.47815 1.75593 7.21851 2.94746 7.21851C 3.76271 7.21851 4.26441 6.84833 4.38983 6.84833C 4.45254 6.84833 4.51525 6.91003 4.51525 6.97172L 4.45254 7.89717ZM 1.50508 4.93573C 1.81864 4.93573 3.38644 4.81234 3.38644 3.94859C 3.38644 3.6401 3.26102 3.39332 2.75932 3.39332C 1.94407 3.39332 1.5678 4.25707 1.50508 4.93573ZM 1.63051 1.54242C 1.63051 1.48072 1.5678 1.48072 1.5678 1.41902C 1.5678 1.35733 1.63051 1.29563 1.69322 1.23393L 3.7 0.0616957C 3.76271 0.0616957 3.76271 0 3.82542 0C 3.88814 0 3.95085 0.0616957 3.95085 0.0616957L 4.32712 0.678662L 4.32712 0.74036C 4.32712 0.802057 4.26441 0.863754 4.20169 0.863754L 2.00678 1.8509C 1.94407 1.8509 1.94407 1.9126 1.88136 1.9126C 1.81864 1.9126 1.75593 1.8509 1.75593 1.7892L 1.63051 1.54242Z"/>
<path id="path12_fill" d="M 4.45254 7.89717C 4.45254 8.26735 3.38644 8.45244 2.44576 8.45244C 0.752542 8.45244 1.19613e-07 7.71208 1.19613e-07 5.92288C 1.19613e-07 3.82519 1.37966 2.22108 3.07288 2.22108C 4.32712 2.22108 4.82881 2.77635 4.82881 3.7018C 4.82881 5.67609 2.44576 5.92288 1.50508 5.92288C 1.50508 6.47815 1.75593 7.21851 2.94746 7.21851C 3.76271 7.21851 4.26441 6.84833 4.38983 6.84833C 4.45254 6.84833 4.51525 6.91003 4.51525 6.97172L 4.45254 7.89717ZM 1.5678 4.93573C 1.88136 4.93573 3.44915 4.81234 3.44915 3.94859C 3.44915 3.6401 3.32373 3.39332 2.82203 3.39332C 2.00678 3.39332 1.63051 4.25707 1.5678 4.93573ZM 1.63051 1.54242C 1.63051 1.48072 1.5678 1.48072 1.5678 1.41902C 1.5678 1.35733 1.63051 1.29563 1.69322 1.23393L 3.7 0.0616957C 3.76271 0.0616957 3.76271 0 3.82542 0C 3.88814 0 3.95085 0.0616957 3.95085 0.0616957L 4.26441 0.616967C 4.26441 0.678663 4.32712 0.678664 4.32712 0.74036C 4.32712 0.802057 4.26441 0.863754 4.20169 0.863754L 2.00678 1.8509C 1.94407 1.8509 1.94407 1.9126 1.88136 1.9126C 1.81864 1.9126 1.75593 1.8509 1.75593 1.7892L 1.63051 1.54242Z"/>
<path id="path13_fill" d="M 0.438983 0.308481C 0.438983 0.185088 0.501695 0.123394 0.689831 0.123394L 1.88136 0.123394C 2.00678 0.123394 2.06949 0.185088 2.06949 0.308481L 1.94407 2.46786C 2.1322 1.91259 2.75932 4.70708e-07 4.38983 4.70708e-07C 5.2678 4.70708e-07 5.58136 0.555269 5.58136 1.48072L 5.33051 5.92288C 5.33051 6.04627 5.2678 6.10797 5.07966 6.10797L 3.82542 6.10797C 3.63729 6.10797 3.63729 5.98458 3.63729 5.92288L 3.82542 2.28278C 3.82542 2.22108 3.82542 2.09769 3.82542 1.97429C 3.82542 1.7892 3.7 1.72751 3.51186 1.72751C 2.94746 1.72751 1.75593 4.07198 1.69322 5.05913L 1.63051 5.86118C 1.63051 5.98457 1.5678 6.04627 1.44237 6.04627L 0.250847 6.04627C 0.0627114 6.04627 -2.39227e-07 5.98457 -2.39227e-07 5.86118L 0.438983 0.308481Z"/>
<path id="path14_fill" d="M 3.76271 4.01028C 3.63729 4.44216 2.88474 6.23136 1.37966 6.23136C 0.37627 6.23136 -2.39227e-07 5.36761 -2.39227e-07 4.19537C -2.39227e-07 1.60411 1.37966 4.70708e-07 2.94746 4.70708e-07C 3.63729 4.70708e-07 4.01356 0.246785 4.13898 0.308481C 4.13898 0.246785 4.2017 0.123394 4.26441 0.123394L 5.45593 0.123394C 5.64407 0.123394 5.70678 0.185092 5.70678 0.370182L 5.39322 5.92288C 5.39322 6.04627 5.33051 6.10797 5.14237 6.10797L 3.88813 6.10797C 3.7 6.10797 3.7 5.98458 3.7 5.92288L 3.76271 4.01028ZM 1.94407 4.68895C 2.69661 4.68895 4.01356 1.8509 4.07627 1.23393C 3.95085 1.17223 3.76271 1.11054 3.38644 1.11054C 1.75593 1.11054 1.5678 2.89974 1.5678 3.94859C 1.50509 4.31877 1.63051 4.68895 1.94407 4.68895Z"/>
<path id="path15_fill" d="M 3.76271 4.01028C 3.63729 4.44216 2.88475 6.23136 1.37966 6.23136C 0.376271 6.23136 -9.56907e-07 5.36761 -9.56907e-07 4.19537C -9.56907e-07 1.60411 1.37966 4.70708e-07 2.94746 4.70708e-07C 3.63729 4.70708e-07 4.01356 0.246785 4.13898 0.308481C 4.13898 0.246785 4.2017 0.123394 4.26441 0.123394L 5.45593 0.123394C 5.64407 0.123394 5.70678 0.185092 5.70678 0.370182L 5.39322 5.92288C 5.39322 6.04627 5.33051 6.10797 5.14237 6.10797L 3.88814 6.10797C 3.7 6.10797 3.7 5.98458 3.7 5.92288L 3.76271 4.01028ZM 1.94407 4.68895C 2.69661 4.68895 4.01356 1.8509 4.07627 1.23393C 3.95085 1.17223 3.76271 1.11054 3.38644 1.11054C 1.75593 1.11054 1.5678 2.89974 1.5678 3.94859C 1.50508 4.31877 1.63051 4.68895 1.94407 4.68895Z"/>
<path id="path16_fill" d="M 0.438984 0.308481C 0.438984 0.185088 0.501694 0.123394 0.68983 0.123394L 1.88136 0.123394C 2.00678 0.123394 2.06949 0.185088 2.06949 0.308481L 1.94407 2.46786C 2.1322 1.91259 2.75932 4.70708e-07 4.38983 4.70708e-07C 5.2678 4.70708e-07 5.58136 0.555269 5.58136 1.48072L 5.33051 5.92288C 5.33051 6.04627 5.2678 6.10797 5.07966 6.10797L 3.82542 6.10797C 3.63729 6.10797 3.63729 5.98458 3.63729 5.92288L 3.82542 2.28278C 3.82542 2.22108 3.82542 2.09769 3.82542 1.97429C 3.82542 1.7892 3.7 1.72751 3.51186 1.72751C 2.94746 1.72751 1.75593 4.07198 1.69322 5.05913L 1.63051 5.86118C 1.63051 5.98457 1.5678 6.04627 1.44237 6.04627L 0.250848 6.04627C 0.0627128 6.04627 -4.45595e-15 5.98457 -4.45595e-15 5.86118L 0.438984 0.308481Z"/>
<path id="path17_fill" d="M 3.19831 2.71465C 3.7 3.02314 4.07627 3.45501 4.07627 4.25707C 4.07627 5.491 3.13559 6.16966 1.75593 6.16966C 0.877965 6.16966 -4.78454e-07 5.98458 -4.78454e-07 5.6144L 0.0627128 4.68895C 0.0627128 4.62725 0.125423 4.50386 0.188135 4.50386C 0.313558 4.50386 0.940676 5.05913 1.81864 5.05913C 2.32034 5.05913 2.6339 4.93573 2.6339 4.62725C 2.6339 4.38046 2.44576 4.31877 2.25763 4.13368L 1.25424 3.51671C 0.564409 3.14653 0.313559 2.71465 0.313559 1.97429C 0.313559 0.802057 1.19153 4.70708e-07 2.50848 4.70708e-07C 3.1356 4.70708e-07 4.13898 0.185089 4.13898 0.555269L 4.07627 1.41902C 4.07627 1.48072 4.01356 1.60411 3.95085 1.60411C 3.7 1.60411 3.26102 1.17224 2.6339 1.17224C 2.06949 1.17224 1.75593 1.29563 1.75593 1.66581C 1.75593 1.8509 1.88136 1.97429 2.00678 2.03599L 3.19831 2.71465Z"/>
<path id="path18_fill" d="M 0.438981 0.308481C 0.438981 0.185088 0.501694 0.123394 0.68983 0.123394L 1.88136 0.123394C 2.00678 0.123394 2.06949 0.185088 2.06949 0.308481L 1.88136 2.34447C 2.06949 1.66581 2.94746 4.70708e-07 4.32712 4.70708e-07C 5.45593 4.70708e-07 5.83221 0.925449 5.83221 2.09769C 5.83221 4.62725 4.38983 6.23136 2.82203 6.23136C 2.19492 6.23136 1.81865 6.04627 1.75593 5.98458L 1.63051 8.32905C 1.63051 8.45244 1.5678 8.51414 1.44237 8.51414L 0.250848 8.51414C 0.0627128 8.51414 0 8.45244 0 8.32905L 0.438981 0.308481ZM 2.32034 5.12082C 3.51186 5.12082 4.26441 4.13368 4.26441 2.40617C 4.26441 1.9126 4.13898 1.54241 3.82542 1.54241C 3.07288 1.54241 1.75593 4.13368 1.75593 5.05913C 1.88136 5.12082 2.06949 5.12082 2.32034 5.12082Z"/>
<path id="path19_fill" d="M 0.376272 0.308481C 0.376272 0.185088 0.438985 0.123394 0.627121 0.123394L 1.81864 0.123394C 1.94407 0.123394 2.00678 0.185088 2.00678 0.308481L 1.88136 2.46786C 1.94407 1.91259 2.57119 4.70708e-07 3.95085 4.70708e-07C 4.38983 4.70708e-07 4.64068 0.0616985 4.64068 0.370182L 4.57797 1.54241C 4.57797 1.66581 4.51526 1.7892 4.38983 1.7892C 4.2017 1.7892 4.07627 1.54241 3.7 1.54241C 2.44576 1.54241 1.69322 4.56555 1.69322 5.05913L 1.63051 5.92288C 1.63051 6.04627 1.5678 6.10797 1.44237 6.10797L 0.250846 6.10797C 0.0627099 6.10797 1.91381e-06 6.04627 1.91381e-06 5.92288L 0.376272 0.308481Z"/>
<path id="path20_fill" d="M 4.45254 5.67609C 4.45254 6.04627 3.38644 6.23136 2.44576 6.23136C 0.75254 6.23136 1.91381e-06 5.491 1.91381e-06 3.7018C 1.91381e-06 1.60411 1.37966 -9.41416e-07 3.07288 -9.41416e-07C 4.32712 -9.41416e-07 4.82881 0.55527 4.82881 1.48072C 4.82881 3.45501 2.44576 3.7018 1.50508 3.7018C 1.50508 4.25707 1.75593 4.99743 2.94746 4.99743C 3.76271 4.99743 4.26441 4.62725 4.38983 4.62725C 4.45254 4.62725 4.51525 4.68895 4.51525 4.81234L 4.45254 5.67609ZM 1.50508 2.71465C 1.81864 2.71465 3.38644 2.59126 3.38644 1.72751C 3.38644 1.41902 3.26101 1.17224 2.75932 1.17224C 1.94407 1.17224 1.56779 2.03599 1.50508 2.71465Z"/>
<path id="path21_fill" d="M 4.45254 5.67609C 4.45254 6.04627 3.38644 6.23136 2.44576 6.23136C 0.752543 6.23136 8.91189e-15 5.491 8.91189e-15 3.7018C 8.91189e-15 1.60411 1.37966 -9.41416e-07 3.07288 -9.41416e-07C 4.32712 -9.41416e-07 4.82881 0.55527 4.82881 1.48072C 4.82881 3.45501 2.44576 3.7018 1.50509 3.7018C 1.50509 4.25707 1.75593 4.99743 2.94746 4.99743C 3.76271 4.99743 4.26441 4.62725 4.38983 4.62725C 4.45254 4.62725 4.51525 4.68895 4.51525 4.81234L 4.45254 5.67609ZM 1.5678 2.71465C 1.88136 2.71465 3.44915 2.59126 3.44915 1.72751C 3.44915 1.41902 3.32373 1.17224 2.82203 1.17224C 2.00678 1.17224 1.63051 2.03599 1.5678 2.71465Z"/>
<path id="path22_fill" d="M 0.438984 0.185089C 0.438984 0.0616962 0.501697 0 0.689832 0L 1.88135 0C 2.00678 0 2.06949 0.0616962 2.06949 0.185089L 1.63051 7.89717C 1.63051 8.02057 1.5678 8.08226 1.44237 8.08226L 0.250846 8.08226C 0.0627109 8.08226 -1.91381e-06 8.02057 -1.91381e-06 7.89717L 0.438984 0.185089ZM 1.94407 4.93573C 1.94407 4.87404 1.88135 4.87404 1.88135 4.81234C 1.88135 4.75064 1.88136 4.68894 1.94407 4.68894L 4.13898 2.22108C 4.2017 2.15938 4.2644 2.09769 4.38983 2.09769L 5.76949 2.09769C 5.8322 2.09769 5.89491 2.09769 5.89491 2.15938C 5.89491 2.22108 5.8322 2.28278 5.8322 2.34447L 3.63729 4.68894L 5.39322 7.71208C 5.39322 7.77378 5.45593 7.83548 5.45593 7.89717C 5.45593 7.95887 5.39322 8.02057 5.2678 8.02057L 3.7 8.02057C 3.63729 8.02057 3.51186 7.95887 3.44915 7.89717L 1.94407 4.93573Z"/>
<path id="path23_fill" d="M 0.376269 0.308481C 0.376269 0.185088 0.438982 0.123394 0.627118 0.123394L 1.81864 0.123394C 1.94407 0.123394 2.00678 0.185088 2.00678 0.308481L 1.88136 2.34447C 2.06949 1.66581 2.94746 4.70708e-07 4.32712 4.70708e-07C 5.45593 4.70708e-07 5.8322 0.925449 5.8322 2.09769C 5.8322 4.62725 4.38983 6.23136 2.82203 6.23136C 2.19491 6.23136 1.81865 6.04627 1.75593 5.98458L 1.63051 8.32905C 1.63051 8.45244 1.5678 8.51414 1.44237 8.51414L 0.250847 8.51414C 0.0627119 8.51414 -9.56907e-07 8.45244 -9.56907e-07 8.32905L 0.376269 0.308481ZM 2.25763 5.12082C 3.44915 5.12082 4.2017 4.13368 4.2017 2.40617C 4.2017 1.9126 4.07627 1.54241 3.76271 1.54241C 3.01017 1.54241 1.69322 4.13368 1.69322 5.05913C 1.75593 5.12082 1.94407 5.12082 2.25763 5.12082Z"/>
<path id="path24_fill" d="M 3.63729 3.7635C 3.38644 4.25707 2.57119 6.16967 1.0661 6.16967C 0.125423 6.16967 9.56907e-07 5.61439 9.56907e-07 4.87403L 0.250849 0.246785C 0.250849 0.123391 0.313557 0.0616976 0.501693 0.0616976L 1.75593 0.0616976C 1.94407 0.0616976 1.94407 0.185088 1.94407 0.246785L 1.69322 3.88689C 1.69322 4.13367 1.69322 4.38046 2.00678 4.38046C 2.57119 4.38046 3.82542 2.09769 3.82542 1.04884L 3.88814 0.185089C 3.88814 0.0616957 3.95085 -4.70708e-07 4.13898 -4.70708e-07L 5.3305 -4.70708e-07C 5.45593 -4.70708e-07 5.51864 0.0616957 5.51864 0.185089L 5.20508 5.79948C 5.20508 5.92288 5.14237 5.98458 5.01695 5.98458L 3.82542 5.98458C 3.63729 5.98458 3.57458 5.92288 3.57458 5.79948L 3.63729 3.7635Z"/>
<path id="path25_fill" d="M 0.376269 0.308481C 0.376269 0.185088 0.438987 0.123394 0.627122 0.123394L 1.81864 0.123394C 1.94407 0.123394 2.00678 0.185088 2.00678 0.308481L 1.88136 2.46786C 2.0695 1.91259 2.69661 4.70708e-07 4.32712 4.70708e-07C 5.20508 4.70708e-07 5.51864 0.555269 5.51864 1.48072L 5.2678 5.92288C 5.2678 6.04627 5.20509 6.10797 5.01695 6.10797L 3.76272 6.10797C 3.57458 6.10797 3.57458 5.98458 3.57458 5.92288L 3.76272 2.28278C 3.76272 2.22108 3.76272 2.09769 3.76272 1.97429C 3.76272 1.7892 3.63729 1.72751 3.44916 1.72751C 2.88475 1.72751 1.69322 4.07198 1.63051 5.05913L 1.5678 5.86118C 1.5678 5.98457 1.50509 6.04627 1.37966 6.04627L 0.250847 6.04627C 0.0627119 6.04627 3.82763e-06 5.98457 3.82763e-06 5.86118L 0.376269 0.308481Z"/>
<path id="path26_fill" d="M 4.13898 6.97172C 4.13898 7.3419 3.19831 7.52699 2.32034 7.52699C 1.19153 7.52699 0.564409 7.09511 0.564409 5.98457L 0.752546 2.59126L 0.188134 2.59126C -1.92503e-06 2.59126 -3.82763e-06 2.52956 -3.82763e-06 2.40617L 0.0627119 1.66581C 0.0627119 1.54241 0.125426 1.41902 0.250849 1.41902L 0.815252 1.41902L 0.877968 0.246788C 0.877968 0.123394 0.940676 -4.38381e-15 1.12881 -4.38381e-15L 2.25763 -4.38381e-15C 2.44576 -4.38381e-15 2.44576 0.123394 2.44576 0.246788L 2.38305 1.41902L 4.2644 1.41902C 4.45254 1.41902 4.45254 1.54241 4.45254 1.66581L 4.38983 2.40617C 4.38983 2.52956 4.32712 2.59126 4.13898 2.59126L 2.25763 2.59126L 2.13221 5.42931C 2.13221 6.04627 2.38305 6.29306 3.01017 6.29306C 3.57457 6.29306 3.95085 6.04627 4.01356 6.04627C 4.07627 6.04627 4.13898 6.10797 4.13898 6.23136L 4.13898 6.97172Z"/>
<path id="path27_fill" d="M 11.2881 3.7635L 16.5559 4.70708e-07C 16.5559 4.70708e-07 13.1695 6.78663 8.84237 10.4884C 4.51525 14.1902 -3.82763e-06 16.8432 -3.82763e-06 16.8432C -3.82763e-06 16.8432 4.38983 13.2031 6.27118 10.7352C 8.21525 8.20565 11.2881 3.7635 11.2881 3.7635Z"/>
<path id="path28_fill" d="M 11.6017 1.7892L 15.6153 9.41416e-07C 15.6153 9.41416e-07 13.1068 4.62725 8.71695 8.32905C 4.38983 12.0308 0 14.8689 0 14.8689C 0 14.8689 4.76611 11.1671 6.64746 8.69923C 8.46611 6.29306 11.6017 1.7892 11.6017 1.7892Z"/>
<path id="path29_fill" d="M 11.6017 1.54242L 16.1797 -4.70708e-07C 16.1797 -4.70708e-07 13.1068 4.38046 8.71694 8.08226C 4.38983 11.7841 0 14.6221 0 14.6221C 0 14.6221 4.76611 10.9203 6.64746 8.45244C 8.4661 6.04627 11.6017 1.54242 11.6017 1.54242Z"/>
<path id="path30_fill" d="M 12.4797 1.04884L 16.7441 -9.41416e-07C 16.7441 -9.41416e-07 13.7339 4.01028 9.15593 7.4036C 4.57797 10.7969 -3.82763e-06 13.3265 -3.82763e-06 13.3265C -3.82763e-06 13.3265 4.70339 9.87146 6.77288 7.52699C 8.77966 5.24422 12.4797 1.04884 12.4797 1.04884Z"/>
</defs>
</svg>
